<svg width="22" height="28" viewBox="0 0 22 28" fill="none" xmlns="http://www.w3.org/2000/svg">
<path d="M1.46671 27.3334V14.5334L1.10004 14.1667C0.855596 13.9223 0.666707 13.6334 0.533374 13.3001C0.400041 12.9667 0.333374 12.6223 0.333374 12.2667C0.333374 11.9112 0.400041 11.5725 0.533374 11.2507C0.666707 10.9281 0.855596 10.6445 1.10004 10.4001L5.46671 6.00008H10.8L16.1334 0.666748L18.8667 3.40008C19.7556 4.28897 20.4445 5.2943 20.9334 6.41608C21.4223 7.53875 21.6667 8.73341 21.6667 10.0001C21.6667 11.2667 21.4223 12.4614 20.9334 13.5841C20.4445 14.7059 19.7556 15.7112 18.8667 16.6001L16.1334 19.3334V27.3334H1.46671ZM4.13337 24.6667H13.4667V18.2334L16.9667 14.7334C17.6112 14.089 18.1112 13.3667 18.4667 12.5667C18.8223 11.7667 19 10.9112 19 10.0001C19 9.11119 18.8165 8.26675 18.4494 7.46675C18.0832 6.66675 17.5889 5.94453 16.9667 5.30008L16.1334 4.43341L11.9 8.66675H6.56671L5.80004 9.43341L8.03337 11.6667C8.65559 12.289 9.13915 13.0054 9.48404 13.8161C9.82804 14.6276 10 15.4779 10 16.3667C10 17.2556 9.83337 18.1059 9.50004 18.9174C9.16671 19.7281 8.67782 20.4556 8.03337 21.1001L4.13337 17.2001V24.6667Z" fill="#FF9F0E"/>
</svg>
