<svg width="87" height="48" viewBox="0 0 87 48" fill="none" xmlns="http://www.w3.org/2000/svg">
<path d="M81.6658 20C81.5715 17.0125 78.0569 14.0402 71.0137 12C71.495 11.1801 71.0137 10.9117 71.0137 10C71.0137 6.46642 67.327 3 62.7288 3C61.6924 3 61.3282 3.70878 60.3616 4C58.8135 2.54553 55.9783 2 53.2603 2C52.0285 2 50.8225 1.65252 49.7096 2C47.7735 0.663013 45.3636 0 42.6082 0C38.8941 0 34.9855 1.81499 33.1397 4C28.7734 3.60205 25.1614 4.39387 23.6712 7C20.0102 7.0546 17.0296 9.30451 16.5699 12C8.93928 14.0667 4.83346 16.8776 4.73425 20L0 35V36C0 42.9729 19.567 48 43.7918 48C68.0155 48 86.4 42.972 86.4 36L81.6658 20ZM23.6712 9C23.6093 8.99669 23.7331 9 23.6712 9H24.8548V8C25.7919 5.9275 28.5652 5 31.9562 5C32.4336 5 32.6446 4.93878 33.1397 5H34.3233C35.8203 2.98294 39.2212 1 42.6082 1C45.1671 1 46.8433 1.71017 48.526 3L49.7096 4V3C50.7499 2.62273 52.0648 3 53.2603 3C55.7406 3 57.9708 3.63654 59.1781 5H60.3616C61.2978 4.65996 61.7062 5 62.7288 5C66.491 5 69.8301 7.17297 69.8301 10C69.8301 10.9275 69.2753 11.2082 68.6466 12C68.6446 12.0017 68.6485 12.9975 68.6466 13C68.5984 13.0596 68.6967 12.9413 68.6466 13V14H69.8301C72.8016 14.3425 74.5644 15.6945 74.5644 17C74.5644 17.7851 73.9948 17.6467 73.3808 18C73.2826 18.0563 73.4673 17.9562 73.3808 18L71.0137 19L73.3808 20C74.7158 20.5171 74.5644 21.1131 74.5644 22C74.5644 23.3221 71.5454 25 68.6466 25C67.3244 25.3773 66.4927 25.6922 65.0959 26C59.1618 27.3022 52.1207 28 44.9753 28C32.7525 28 22.5038 25.7512 18.937 25C18.1148 24.8271 17.776 25.0058 17.7534 25C14.5059 25 11.8356 22.4258 11.8356 20C11.8356 17.5742 14.5059 16 17.7534 16C17.557 15.9843 17.9568 16 17.7534 16H18.937V15C18.5559 14.4151 17.7534 13.6387 17.7534 13C17.7505 13.0372 17.7534 12.9619 17.7534 13C18.056 10.8423 20.6644 9 23.6712 9ZM16.5699 14C16.565 13.9727 16.5738 14.0265 16.5699 14C16.562 13.9578 16.5767 14.0422 16.5699 14C16.6141 14.2209 16.4903 13.7849 16.5699 14C16.5708 14.0025 16.5689 13.9975 16.5699 14C12.7114 14.1928 9.46849 16.9934 9.46849 20C9.46849 23.1034 13.7181 25.957 17.7534 26C17.9381 26.043 18.3014 25.866 18.937 26C22.5823 26.7678 32.5982 29 44.9753 29C44.9734 29 44.9773 29 44.9753 29C53.9144 29 61.5779 28.0047 68.6466 26C72.1465 25.9595 76.9315 24.2611 76.9315 22C76.9315 21.722 77.018 21.2647 76.9315 21C76.6741 20.2066 75.4937 19.5568 74.5644 19C75.4858 18.31 75.7479 17.8679 75.7479 17C75.7479 16.938 75.7538 16.062 75.7479 16C75.744 15.9479 75.7558 16.0496 75.7479 16C75.7381 15.9396 75.7617 16.0587 75.7479 16C75.7342 15.9437 75.7656 16.0563 75.7479 16C75.744 15.9868 75.7519 16.0141 75.7479 16C78.5917 17.4172 80.4822 18.428 80.4822 20C80.4822 24.7696 64.7848 30 42.6082 30C20.4316 30 5.91781 24.7696 5.91781 20C5.91781 17.5296 9.92159 15.8648 16.5699 14ZM42.6082 47C20.1114 47 1.34564 42.0148 1.18356 36L5.91781 23C9.55727 28.0882 23.7665 32 42.6082 32C61.4479 32 76.8447 28.0898 80.4822 23L85.2164 36C85.0544 42.0156 65.1051 47 42.6082 47Z" fill="#839AA9"/>
<path d="M55.6274 36C55.6274 34.3056 54.043 33 52.0767 33C50.1739 33 48.6193 34.3785 48.526 36H36.6904C36.5962 34.3785 35.0435 33 33.1397 33C31.1754 33 29.5891 34.3056 29.5891 36C29.5891 36.9885 29.9294 37.4382 30.7726 38C29.9294 38.5618 29.5891 40.0124 29.5891 41C29.5891 42.6944 31.1754 44 33.1397 44C35.0435 44 36.5972 42.6215 36.6904 41H48.526C48.6203 42.6215 50.1749 44 52.0767 44C54.043 44 55.6274 42.6944 55.6274 41C55.6274 40.0132 55.2852 38.5618 54.4438 38C55.2852 37.4382 55.6274 36.9893 55.6274 36ZM54.4438 41C54.4438 41.9868 53.2219 43 52.0767 43C50.9335 43 49.7096 41.9868 49.7096 41C49.6817 41.1185 49.7096 40.8815 49.7096 41V40H35.5069V41C35.5069 40.8815 35.5347 41.1185 35.5069 41C35.5069 41.9868 34.2849 43 33.1397 43C31.9956 43 30.7726 41.9868 30.7726 41C30.7726 40.0148 31.9956 39 33.1397 39V38C31.9956 38 30.7726 36.9852 30.7726 36C30.7726 35.0132 31.9956 34 33.1397 34C34.2849 34 35.5069 35.0132 35.5069 36C35.5069 36.1201 35.5347 35.8815 35.5069 36V37H49.7096V36C49.6817 35.8799 49.7096 36.1185 49.7096 36C49.7096 35.0132 50.9335 34 52.0767 34C53.2219 34 54.4438 35.0132 54.4438 36C54.4438 36.9852 53.2219 38 52.0767 38V39C53.2228 38.9992 54.4438 40.014 54.4438 41Z" fill="#839AA9"/>
</svg>
