<svg xmlns="http://www.w3.org/2000/svg" aria-hidden="true" overflow="hidden" style="position:absolute;width:0;height:0">
  <defs>
    <symbol id="icon-insta" viewBox="0 0 32 32">
      <path d="M9.725 3.118c-1.752 0-3.433.696-4.672 1.935s-1.935 2.92-1.935 4.672v12.549c0 1.752.696 3.433 1.935 4.672s2.92 1.935 4.672 1.935h12.549c1.752 0 3.433-.696 4.672-1.935s1.935-2.92 1.935-4.672V9.725c0-1.752-.696-3.433-1.935-4.672s-2.92-1.935-4.672-1.935H9.725zm-6.419.188A9.0776 9.0776 0 0 1 9.725.647h12.549c2.408 0 4.717.956 6.419 2.659s2.659 4.012 2.659 6.419v12.549a9.0783 9.0783 0 0 1-9.078 9.078H9.725a9.0783 9.0783 0 0 1-9.078-9.078V9.725c0-2.408.956-4.717 2.659-6.419zm7.384 7.384c1.408-1.408 3.319-2.2 5.31-2.2s3.902.791 5.31 2.2c1.408 1.408 2.2 3.319 2.2 5.31s-.791 3.902-2.2 5.31c-1.408 1.408-3.319 2.2-5.31 2.2s-3.902-.791-5.31-2.2c-1.408-1.408-2.2-3.319-2.2-5.31s.791-3.902 2.2-5.31zm5.31.271A5.0396 5.0396 0 0 0 10.961 16 5.0396 5.0396 0 0 0 16 21.039 5.0396 5.0396 0 0 0 21.039 16 5.0396 5.0396 0 0 0 16 10.961zm9.558-2.759c.459-.505.422-1.286-.083-1.745s-1.286-.422-1.745.083l-.016.018c-.459.505-.422 1.286.083 1.745s1.286.422 1.745-.083l.016-.018z"/>
    </symbol>
    <symbol id="icon-at" viewBox="0 0 32 32">
      <path d="M16 31.238c-2.083 0-4.051-.4-5.905-1.201-1.854-.799-3.473-1.892-4.856-3.276s-2.477-3.002-3.276-4.856C1.163 20.051.762 18.083.762 16c0-2.108.4-4.082 1.201-5.923.8-1.842 1.892-3.454 3.276-4.838 1.384-1.385 3.002-2.477 4.856-3.278C11.949 1.161 13.917.762 16 .762c2.108 0 4.082.4 5.923 1.199 1.842.8 3.454 1.893 4.838 3.278s2.477 2.996 3.276 4.838c.801 1.841 1.201 3.815 1.201 5.923v2.209c0 1.498-.514 2.774-1.542 3.828-1.029 1.055-2.293 1.582-3.791 1.582-.914 0-1.765-.203-2.552-.61s-1.435-.94-1.943-1.6c-.686.686-1.492 1.226-2.418 1.62-.928.393-1.925.59-2.991.59-2.108 0-3.905-.743-5.39-2.229-1.486-1.485-2.229-3.282-2.229-5.39s.743-3.905 2.229-5.391c1.485-1.485 3.282-2.228 5.39-2.228s3.905.743 5.391 2.228c1.485 1.486 2.228 3.283 2.228 5.391v2.209c0 .737.229 1.314.686 1.733.457.42.991.629 1.6.629s1.143-.21 1.6-.629c.457-.419.686-.996.686-1.733V16c0-3.327-1.2-6.191-3.601-8.591s-5.263-3.599-8.59-3.599S9.81 5.01 7.41 7.409 3.811 12.673 3.811 16s1.2 6.19 3.599 8.59c2.4 2.4 5.264 3.601 8.591 3.601h7.619v3.048h-7.619zm0-10.666c1.27 0 2.349-.444 3.238-1.333s1.333-1.968 1.333-3.238-.444-2.349-1.333-3.238S17.27 11.43 16 11.43s-2.349.444-3.238 1.333-1.333 1.968-1.333 3.238.444 2.349 1.333 3.238c.889.889 1.968 1.333 3.238 1.333z"/>
    </symbol>
    <symbol id="icon-face" viewBox="0 0 25 32">
      <path d="M7.566 7.958c0-1.334.529-2.612 1.47-3.555s2.218-1.473 3.549-1.473 2.608.53 3.549 1.473a5.0338 5.0338 0 0 1 0 7.11c-.941.943-2.218 1.473-3.549 1.473s-2.608-.53-3.549-1.473a5.0338 5.0338 0 0 1-1.47-3.555zm5.02-7.902c-2.092 0-4.098.832-5.578 2.314s-2.31 3.491-2.31 5.587c0 2.096.831 4.105 2.31 5.587s3.486 2.314 5.578 2.314 4.098-.832 5.578-2.314 2.31-3.491 2.31-5.587-.831-4.105-2.31-5.587A7.8805 7.8805 0 0 0 12.586.056zM.395 23.042c0-1.143.453-2.239 1.26-3.047s1.901-1.262 3.042-1.262h15.776c1.141 0 2.236.454 3.042 1.262s1.26 1.904 1.26 3.047v.325c-.003.134-.012.268-.029.401-.029.249-.082.586-.186.985a8.0075 8.0075 0 0 1-1.433 2.898c-1.678 2.158-4.835 4.011-10.543 4.011s-8.863-1.853-10.543-4.011a8.0017 8.0017 0 0 1-1.434-2.898 6.968 6.968 0 0 1-.209-1.29l-.003-.096v-.033l-.001-.012v-.28zm2.868.256v.017c.02.242.061.481.122.715.129.5.392 1.175.919 1.855 1.011 1.299 3.233 2.903 8.281 2.903s7.271-1.605 8.281-2.902c.429-.55.741-1.181.918-1.856.062-.234.103-.474.123-.715l.001-.017v-.256c0-.381-.151-.746-.42-1.016s-.634-.421-1.014-.421H4.697c-.38 0-.745.151-1.014.421s-.42.635-.42 1.016v.256z"/>
    </symbol>
    <symbol id="icon-basket" viewBox="0 0 31 32">
      <path d="M1.467 12.878H29.76v-2.081H1.467v2.081zm27.675-.618v.914h2.081v-.914h-2.081zm-3.359 17.268H5.445v2.081h20.338v-2.081zM2.085 13.174v-.914H.004v.914h2.081zm3.946 16.717a37.382 37.382 0 0 1-3.946-16.717H.004a39.45 39.45 0 0 0 4.167 17.649l1.861-.932zm-.587-.363c.25 0 .477.142.587.362l-1.861.932c.119.236.3.435.525.574s.484.213.748.213v-2.081zm19.752.363c.055-.109.138-.201.242-.265s.223-.098.345-.098v2.081c.541 0 1.032-.304 1.274-.787l-1.861-.932zm3.946-16.717c0 5.803-1.353 11.526-3.946 16.717l1.861.932a39.4665 39.4665 0 0 0 4.167-17.649h-2.081zm.618-.296a.6176.6176 0 0 1-.618-.618h2.081c0-.388-.154-.76-.429-1.035s-.647-.429-1.035-.429v2.081zM1.467 10.797c-.388 0-.76.154-1.035.429s-.429.647-.429 1.035h2.081a.6176.6176 0 0 1-.618.618v-2.081zm6.714 1.575 6.244-10.406-1.788-1.07-6.244 10.407 1.788 1.07zm8.621-10.406 6.244 10.406 1.786-1.07L18.588.895l-1.786 1.07zM10.41 21.203h10.406v-2.081H10.41v2.081z"/>
    </symbol>
    <symbol id="icon-dog" viewBox="0 0 25 32">
      <path d="M1.676 31.238V16.609l-.419-.419c-.279-.279-.495-.61-.648-.99S.38 14.425.38 14.019s.076-.793.229-1.161.368-.693.648-.972l4.99-5.029h6.095L18.437.762l3.124 3.124c1.016 1.016 1.803 2.165 2.362 3.447.559 1.283.838 2.648.838 4.096s-.279 2.813-.838 4.096c-.559 1.282-1.346 2.431-2.362 3.447l-3.124 3.124v9.143H1.675zm3.048-3.047h10.667v-7.352l4-4c.737-.736 1.308-1.562 1.714-2.476s.61-1.892.61-2.933c0-1.016-.21-1.981-.629-2.895-.419-.914-.983-1.74-1.695-2.476l-.952-.99-4.838 4.838H7.506l-.876.876 2.552 2.552c.711.711 1.264 1.53 1.658 2.456s.59 1.899.59 2.915-.19 1.988-.571 2.915-.94 1.758-1.676 2.494l-4.457-4.457v8.533z"/>
    </symbol>
    <symbol id="icon-facebook" viewBox="0 0 32 32">
      <path d="M31.294 16c0-3.025-.897-5.982-2.578-8.497s-4.069-4.475-6.864-5.633C19.057.712 15.982.41 13.015 1S7.323 3.047 5.184 5.186C3.045 7.325 1.588 10.05.998 13.017s-.287 6.042.87 8.837c1.158 2.795 3.118 5.183 5.633 6.864s5.472 2.578 8.497 2.578c4.055-.004 7.943-1.616 10.81-4.484s4.48-6.755 4.484-10.81zM17.176 28.882v-9.353h3.529c.312 0 .611-.124.832-.345s.345-.52.345-.832c0-.312-.124-.611-.345-.832s-.52-.345-.832-.345h-3.529v-3.529c0-.624.248-1.223.689-1.664s1.04-.689 1.664-.689h2.353c.312 0 .611-.124.832-.345s.345-.52.345-.832c0-.312-.124-.611-.345-.832s-.52-.345-.832-.345h-2.353c-1.247.004-2.442.501-3.323 1.383s-1.379 2.076-1.383 3.323v3.529h-3.529c-.312 0-.611.124-.832.345s-.345.52-.345.832c0 .312.124.611.345.832s.52.345.832.345h3.529v9.353c-3.317-.303-6.389-1.872-8.577-4.382s-3.326-5.767-3.174-9.094c.152-3.327 1.58-6.467 3.988-8.768S12.67 3.052 16 3.052c3.33 0 6.532 1.284 8.94 3.585s3.836 5.441 3.988 8.768c.152 3.327-.985 6.584-3.174 9.094s-5.261 4.08-8.577 4.382z"/>
    </symbol>
    <symbol id="icon-phone" viewBox="0 0 32 32">
      <path d="M29.524 31.238c-3.962 0-7.689-.749-11.18-2.248-3.493-1.498-6.54-3.549-9.143-6.152-2.604-2.604-4.661-5.651-6.171-9.143C1.518 10.202.763 6.462.763 2.475c-.025-.457.127-.857.457-1.201C1.55.932 1.957.76 2.439.76h5.943c.457 0 .851.171 1.181.514.33.343.495.756.495 1.239 0 1.117.076 2.171.229 3.162s.394 1.93.724 2.819c.127.279.152.565.076.856-.076.293-.229.566-.457.82l-3.81 3.809c1.092 2.235 2.641 4.356 4.648 6.362s4.165 3.606 6.476 4.8l3.81-3.81c.229-.229.495-.381.8-.457s.61-.051.914.076c.94.305 1.911.539 2.913.704 1.004.166 2.039.248 3.105.248.483 0 .896.178 1.239.533s.514.787.514 1.295v5.829c0 .457-.165.851-.495 1.181s-.736.495-1.219.495zm-8.762-4.571c1.143.432 2.336.775 3.581 1.029s2.527.419 3.848.495v-3.276c-.787-.051-1.593-.14-2.418-.267-.826-.127-1.645-.317-2.458-.571l-2.552 2.59zM28.191 16c0-3.403-1.181-6.286-3.543-8.648S19.404 3.809 16 3.809V.761c2.108 0 4.089.4 5.943 1.199 1.854.801 3.467 1.886 4.838 3.258s2.457 2.984 3.256 4.838c.8 1.854 1.201 3.835 1.201 5.943H28.19zm-6.096 0c0-1.676-.597-3.111-1.791-4.305s-2.629-1.79-4.305-1.79V6.857c2.54 0 4.698.889 6.476 2.667s2.667 3.937 2.667 6.476h-3.048zM5.333 11.162 7.847 8.61c-.203-.737-.375-1.511-.515-2.324-.139-.813-.234-1.638-.285-2.476h-3.2c.051 1.219.203 2.438.457 3.657s.597 2.451 1.029 3.695z"/>
    </symbol>
  </defs>
</svg>
