<svg xmlns="http://www.w3.org/2000/svg" aria-hidden="true" overflow="hidden" style="position:absolute;width:0;height:0">
  <defs>
    <symbol id="icon-insta" viewBox="0 0 32 32">
      <path d="M9.725 3.118c-1.752 0-3.433.696-4.672 1.935s-1.935 2.92-1.935 4.672v12.549c0 1.752.696 3.433 1.935 4.672s2.92 1.935 4.672 1.935h12.549c1.752 0 3.433-.696 4.672-1.935s1.935-2.92 1.935-4.672V9.725c0-1.752-.696-3.433-1.935-4.672s-2.92-1.935-4.672-1.935H9.725zm-6.419.188A9.0776 9.0776 0 0 1 9.725.647h12.549c2.408 0 4.717.956 6.419 2.659s2.659 4.012 2.659 6.419v12.549a9.0783 9.0783 0 0 1-9.078 9.078H9.725a9.0783 9.0783 0 0 1-9.078-9.078V9.725c0-2.408.956-4.717 2.659-6.419zm7.384 7.384c1.408-1.408 3.319-2.2 5.31-2.2s3.902.791 5.31 2.2c1.408 1.408 2.2 3.319 2.2 5.31s-.791 3.902-2.2 5.31c-1.408 1.408-3.319 2.2-5.31 2.2s-3.902-.791-5.31-2.2c-1.408-1.408-2.2-3.319-2.2-5.31s.791-3.902 2.2-5.31zm5.31.271A5.0396 5.0396 0 0 0 10.961 16 5.0396 5.0396 0 0 0 16 21.039 5.0396 5.0396 0 0 0 21.039 16 5.0396 5.0396 0 0 0 16 10.961zm9.558-2.759c.459-.505.422-1.286-.083-1.745s-1.286-.422-1.745.083l-.016.018c-.459.505-.422 1.286.083 1.745s1.286.422 1.745-.083l.016-.018z"/>
    </symbol>
    <symbol id="icon-at" viewBox="0 0 32 32">
      <path d="M16 31.238c-2.083 0-4.051-.4-5.905-1.201-1.854-.799-3.473-1.892-4.856-3.276s-2.477-3.002-3.276-4.856C1.163 20.051.762 18.083.762 16c0-2.108.4-4.082 1.201-5.923.8-1.842 1.892-3.454 3.276-4.838 1.384-1.385 3.002-2.477 4.856-3.278C11.949 1.161 13.917.762 16 .762c2.108 0 4.082.4 5.923 1.199 1.842.8 3.454 1.893 4.838 3.278s2.477 2.996 3.276 4.838c.801 1.841 1.201 3.815 1.201 5.923v2.209c0 1.498-.514 2.774-1.542 3.828-1.029 1.055-2.293 1.582-3.791 1.582-.914 0-1.765-.203-2.552-.61s-1.435-.94-1.943-1.6c-.686.686-1.492 1.226-2.418 1.62-.928.393-1.925.59-2.991.59-2.108 0-3.905-.743-5.39-2.229-1.486-1.485-2.229-3.282-2.229-5.39s.743-3.905 2.229-5.391c1.485-1.485 3.282-2.228 5.39-2.228s3.905.743 5.391 2.228c1.485 1.486 2.228 3.283 2.228 5.391v2.209c0 .737.229 1.314.686 1.733.457.42.991.629 1.6.629s1.143-.21 1.6-.629c.457-.419.686-.996.686-1.733V16c0-3.327-1.2-6.191-3.601-8.591s-5.263-3.599-8.59-3.599S9.81 5.01 7.41 7.409 3.811 12.673 3.811 16s1.2 6.19 3.599 8.59c2.4 2.4 5.264 3.601 8.591 3.601h7.619v3.048h-7.619zm0-10.666c1.27 0 2.349-.444 3.238-1.333s1.333-1.968 1.333-3.238-.444-2.349-1.333-3.238S17.27 11.43 16 11.43s-2.349.444-3.238 1.333-1.333 1.968-1.333 3.238.444 2.349 1.333 3.238c.889.889 1.968 1.333 3.238 1.333z"/>
    </symbol>
    <symbol id="icon-face" viewBox="0 0 25 32">
      <path d="M7.566 7.958c0-1.334.529-2.612 1.47-3.555s2.218-1.473 3.549-1.473 2.608.53 3.549 1.473a5.0338 5.0338 0 0 1 0 7.11c-.941.943-2.218 1.473-3.549 1.473s-2.608-.53-3.549-1.473a5.0338 5.0338 0 0 1-1.47-3.555zm5.02-7.902c-2.092 0-4.098.832-5.578 2.314s-2.31 3.491-2.31 5.587c0 2.096.831 4.105 2.31 5.587s3.486 2.314 5.578 2.314 4.098-.832 5.578-2.314 2.31-3.491 2.31-5.587-.831-4.105-2.31-5.587A7.8805 7.8805 0 0 0 12.586.056zM.395 23.042c0-1.143.453-2.239 1.26-3.047s1.901-1.262 3.042-1.262h15.776c1.141 0 2.236.454 3.042 1.262s1.26 1.904 1.26 3.047v.325c-.003.134-.012.268-.029.401-.029.249-.082.586-.186.985a8.0075 8.0075 0 0 1-1.433 2.898c-1.678 2.158-4.835 4.011-10.543 4.011s-8.863-1.853-10.543-4.011a8.0017 8.0017 0 0 1-1.434-2.898 6.968 6.968 0 0 1-.209-1.29l-.003-.096v-.033l-.001-.012v-.28zm2.868.256v.017c.02.242.061.481.122.715.129.5.392 1.175.919 1.855 1.011 1.299 3.233 2.903 8.281 2.903s7.271-1.605 8.281-2.902c.429-.55.741-1.181.918-1.856.062-.234.103-.474.123-.715l.001-.017v-.256c0-.381-.151-.746-.42-1.016s-.634-.421-1.014-.421H4.697c-.38 0-.745.151-1.014.421s-.42.635-.42 1.016v.256z"/>
    </symbol>
    <symbol id="icon-basket" viewBox="0 0 31 32">
      <path d="M1.467 12.878H29.76v-2.081H1.467v2.081zm27.675-.618v.914h2.081v-.914h-2.081zm-3.359 17.268H5.445v2.081h20.338v-2.081zM2.085 13.174v-.914H.004v.914h2.081zm3.946 16.717a37.382 37.382 0 0 1-3.946-16.717H.004a39.45 39.45 0 0 0 4.167 17.649l1.861-.932zm-.587-.363c.25 0 .477.142.587.362l-1.861.932c.119.236.3.435.525.574s.484.213.748.213v-2.081zm19.752.363c.055-.109.138-.201.242-.265s.223-.098.345-.098v2.081c.541 0 1.032-.304 1.274-.787l-1.861-.932zm3.946-16.717c0 5.803-1.353 11.526-3.946 16.717l1.861.932a39.4665 39.4665 0 0 0 4.167-17.649h-2.081zm.618-.296a.6176.6176 0 0 1-.618-.618h2.081c0-.388-.154-.76-.429-1.035s-.647-.429-1.035-.429v2.081zM1.467 10.797c-.388 0-.76.154-1.035.429s-.429.647-.429 1.035h2.081a.6176.6176 0 0 1-.618.618v-2.081zm6.714 1.575 6.244-10.406-1.788-1.07-6.244 10.407 1.788 1.07zm8.621-10.406 6.244 10.406 1.786-1.07L18.588.895l-1.786 1.07zM10.41 21.203h10.406v-2.081H10.41v2.081z"/>
    </symbol>
    <symbol id="icon-dog" viewBox="0 0 25 32">
      <path d="M1.676 31.238V16.609l-.419-.419c-.279-.279-.495-.61-.648-.99S.38 14.425.38 14.019s.076-.793.229-1.161.368-.693.648-.972l4.99-5.029h6.095L18.437.762l3.124 3.124c1.016 1.016 1.803 2.165 2.362 3.447.559 1.283.838 2.648.838 4.096s-.279 2.813-.838 4.096c-.559 1.282-1.346 2.431-2.362 3.447l-3.124 3.124v9.143H1.675zm3.048-3.047h10.667v-7.352l4-4c.737-.736 1.308-1.562 1.714-2.476s.61-1.892.61-2.933c0-1.016-.21-1.981-.629-2.895-.419-.914-.983-1.74-1.695-2.476l-.952-.99-4.838 4.838H7.506l-.876.876 2.552 2.552c.711.711 1.264 1.53 1.658 2.456s.59 1.899.59 2.915-.19 1.988-.571 2.915-.94 1.758-1.676 2.494l-4.457-4.457v8.533z"/>
    </symbol>
    <symbol id="icon-facebook" viewBox="0 0 32 32">
      <path d="M31.294 16c0-3.025-.897-5.982-2.578-8.497s-4.069-4.475-6.864-5.633C19.057.712 15.982.41 13.015 1S7.323 3.047 5.184 5.186C3.045 7.325 1.588 10.05.998 13.017s-.287 6.042.87 8.837c1.158 2.795 3.118 5.183 5.633 6.864s5.472 2.578 8.497 2.578c4.055-.004 7.943-1.616 10.81-4.484s4.48-6.755 4.484-10.81zM17.176 28.882v-9.353h3.529c.312 0 .611-.124.832-.345s.345-.52.345-.832c0-.312-.124-.611-.345-.832s-.52-.345-.832-.345h-3.529v-3.529c0-.624.248-1.223.689-1.664s1.04-.689 1.664-.689h2.353c.312 0 .611-.124.832-.345s.345-.52.345-.832c0-.312-.124-.611-.345-.832s-.52-.345-.832-.345h-2.353c-1.247.004-2.442.501-3.323 1.383s-1.379 2.076-1.383 3.323v3.529h-3.529c-.312 0-.611.124-.832.345s-.345.52-.345.832c0 .312.124.611.345.832s.52.345.832.345h3.529v9.353c-3.317-.303-6.389-1.872-8.577-4.382s-3.326-5.767-3.174-9.094c.152-3.327 1.58-6.467 3.988-8.768S12.67 3.052 16 3.052c3.33 0 6.532 1.284 8.94 3.585s3.836 5.441 3.988 8.768c.152 3.327-.985 6.584-3.174 9.094s-5.261 4.08-8.577 4.382z"/>
    </symbol>
    <symbol id="icon-phone" viewBox="0 0 32 32">
      <path d="M29.524 31.238c-3.962 0-7.689-.749-11.18-2.248-3.493-1.498-6.54-3.549-9.143-6.152-2.604-2.604-4.661-5.651-6.171-9.143C1.518 10.202.763 6.462.763 2.475c-.025-.457.127-.857.457-1.201C1.55.932 1.957.76 2.439.76h5.943c.457 0 .851.171 1.181.514.33.343.495.756.495 1.239 0 1.117.076 2.171.229 3.162s.394 1.93.724 2.819c.127.279.152.565.076.856-.076.293-.229.566-.457.82l-3.81 3.809c1.092 2.235 2.641 4.356 4.648 6.362s4.165 3.606 6.476 4.8l3.81-3.81c.229-.229.495-.381.8-.457s.61-.051.914.076c.94.305 1.911.539 2.913.704 1.004.166 2.039.248 3.105.248.483 0 .896.178 1.239.533s.514.787.514 1.295v5.829c0 .457-.165.851-.495 1.181s-.736.495-1.219.495zm-8.762-4.571c1.143.432 2.336.775 3.581 1.029s2.527.419 3.848.495v-3.276c-.787-.051-1.593-.14-2.418-.267-.826-.127-1.645-.317-2.458-.571l-2.552 2.59zM28.191 16c0-3.403-1.181-6.286-3.543-8.648S19.404 3.809 16 3.809V.761c2.108 0 4.089.4 5.943 1.199 1.854.801 3.467 1.886 4.838 3.258s2.457 2.984 3.256 4.838c.8 1.854 1.201 3.835 1.201 5.943H28.19zm-6.096 0c0-1.676-.597-3.111-1.791-4.305s-2.629-1.79-4.305-1.79V6.857c2.54 0 4.698.889 6.476 2.667s2.667 3.937 2.667 6.476h-3.048zM5.333 11.162 7.847 8.61c-.203-.737-.375-1.511-.515-2.324-.139-.813-.234-1.638-.285-2.476h-3.2c.051 1.219.203 2.438.457 3.657s.597 2.451 1.029 3.695z"/>
    </symbol>
    <symbol id="icon-arrow" viewBox="0 0 82 32">
<path d="M81.414 17.414c0.781-0.781 0.781-2.047 0-2.828l-12.728-12.728c-0.781-0.781-2.047-0.781-2.828 0s-0.781 2.047 0 2.829l11.314 11.314-11.314 11.314c-0.781 0.781-0.781 2.047 0 2.828s2.047 0.781 2.828 0l12.728-12.728zM0 18h80v-4h-80v4z"></path>
</symbol>
<symbol id="icon-bathing" viewBox="0 0 38 32">
      <path d="M27.326 14.703c-.239-.556-.658-1.236-1.496-1.792-.479-.309-2.334-.556-2.394 1.174 0 0-.778.124-.718.68 0 0-.479 1.668 1.796 1.483 0 0 .419 3.151.778 3.83 0 0 .18.618.239 1.236h.958l.06-1.236s.539.371.958 1.236h1.377c-.06-.494-.12-.927-.239-1.236 0 0 2.035 0 2.753-.927 0 0 .599 1.174 1.317 1.236v.988h.958c.06-.185.06-.371.12-.68 0 0 .359.185.539.68h.838c-.12-.432-1.197-4.448-1.556-4.757 0 0 .539-.062.718.618 0 0 .299 1.421.898 1.359 0 0 .419-.927-.299-2.1 0 0-.299-.865-1.856-.741l-4.489-.124c-.599-.124-1.018-.494-1.257-.927zM21.88 9.946c.359-.494.299-1.236-.18-1.668-.479-.371-1.197-.309-1.616.185-1.137 1.483-3.172 1.73-4.609 1.112l-.778 2.224c2.454.988 5.447.494 7.183-1.853zM11.704 6.054c1.62 0 2.933-1.355 2.933-3.027S13.324 0 11.704 0c-1.62 0-2.933 1.355-2.933 3.027s1.313 3.027 2.933 3.027z"/>
      <path d="m13.44 21.992-2.514-1.05 1.496-4.386c-3.352-1.915-4.549-4.942-4.609-5.127-.359-.927.06-1.915.958-2.286s1.856.062 2.215.988c.06.124.778 1.73 2.634 3.027l1.137-3.212c.12-.371.06-.741-.18-1.05-2.155-2.471-4.669-3.398-7.422-2.533-.778.247-1.317.865-1.496 1.668L3.265 20.88v.371l.12 5.869-1.317-.309c-.898-.185-1.856.432-2.035 1.359s.419 1.915 1.317 2.1l3.412.741c.539.124 1.018 0 1.437-.371s.658-.865.599-1.421l-.12-6.178 4.37 1.792v5.375c0 .988.778 1.792 1.736 1.792s1.736-.803 1.736-1.792V23.66c.06-.741-.419-1.359-1.077-1.668z"/>
      <path d="M18.049 15.259c-5.686-.432-7.482-4.695-7.542-4.88-.239-.618-.898-.865-1.496-.618s-.838.927-.599 1.544c.12.247 2.394 5.807 9.517 6.363.658.062 1.197-.432 1.197-1.112s-.419-1.236-1.077-1.297zm10.235-8.031c-1.197.247-2.095 1.359-2.095 2.656h5.327c0-1.421-1.018-2.533-2.334-2.718-1.796-2.039-4.669-1.236-6.943.803.12.124.239.309.359.494 1.616-1.544 3.831-2.595 5.686-1.236zm9.098 14.641h-16.82c-.479 0-.898.432-.898.927s.419.927.898.927h.18v1.544c0 2.409 1.915 4.386 4.25 4.386h8.081c2.334 0 4.25-1.977 4.25-4.386v-1.544h.18c.479 0 .898-.432.898-.927-.12-.556-.539-.927-1.018-.927zM26.668 11.12l.06-.556c0-.185-.06-.309-.239-.309s-.299.062-.299.247l-.06.556c0 .185.06.309.239.309.12 0 .239-.124.299-.247zm-.718.741-.06.556c0 .185.06.309.239.309s.299-.062.299-.247l.06-.556c0-.185-.06-.309-.239-.309-.12 0-.239.124-.299.247zm2.035-.494c.18 0 .299-.124.299-.309v-.618c0-.185-.12-.309-.299-.309s-.299.124-.299.309v.618c0 .124.18.309.299.309zm-.359 1.112c0 .185.12.309.299.309s.299-.124.299-.309v-.618c0-.185-.12-.309-.299-.309s-.299.124-.299.309v.618zm1.975-2.286c-.18 0-.299.124-.299.309v.618c0 .185.12.309.299.309s.299-.124.299-.309v-.618c0-.185-.12-.309-.299-.309zm-.18 1.73v.618c0 .185.12.309.299.309s.299-.124.299-.309v-.618c0-.185-.12-.309-.299-.309-.239 0-.359.124-.299.309zm1.736-1.73c-.18 0-.239.185-.239.309l.06.556c0 .124.12.247.299.247s.299-.185.299-.371l-.12-.494c0-.185-.18-.309-.299-.247zm-.059 1.792.06.556c0 .124.18.247.299.247.18 0 .299-.185.239-.309v-.618c0-.185-.18-.247-.299-.247-.18.062-.299.185-.299.371z"/>
    </symbol>
    <symbol id="icon-grooming" viewBox="0 0 32 32">
      <path d="M21.1 9.363c-.085-.371-.316-.65-.633-.765-.023-.008-.047-.009-.07-.016.228-1.036.87-4.801-1.234-7.004C17.944.301 16.042-.204 13.512.074a.4132.4132 0 0 0-.149-.031c-1.987-.064-3.508.484-4.504 1.626-1.953 2.238-1.246 6.013-1.042 6.908-.03.008-.061.01-.09.02-.318.115-.549.394-.633.765-.076.331-.033.712.118 1.075.278.665.841 1.09 1.381 1.09.058 0 .115-.005.172-.015.458 1.357 1.223 2.486 2.487 3.179v1.392h-.656v3.925h7.002v-3.925h-.657V14.7c1.266-.692 2.031-1.824 2.489-3.187.056.01.113.014.17.014.54 0 1.103-.425 1.381-1.089.151-.363.194-.745.118-1.075zm-13.286.857c-.105-.251-.137-.518-.088-.732.039-.169.125-.289.236-.33.03-.011.063-.016.098-.016.063 0 .133.018.205.051.074.599.179 1.18.326 1.731-.247-.005-.594-.269-.776-.705zm9.498 6.464c-.643.629-1.84 1.052-3.215 1.052s-2.573-.424-3.215-1.052h.694c.178 0 .323-.135.323-.301v-1.392c.63.241 1.362.392 2.215.432.839-.04 1.56-.188 2.182-.425v1.385c0 .166.145.301.323.301h.694zm1.984-7.81c-.021.185-.043.37-.069.547-.067.453-.153.88-.258 1.284-.04.152-.084.299-.13.444-.396 1.263-1.02 2.247-1.984 2.876-.142.093-.296.174-.454.251-.633.312-1.384.503-2.289.546-.902-.043-1.653-.23-2.287-.537-.168-.081-.331-.168-.483-.267-.966-.63-1.591-1.612-1.988-2.872-.046-.145-.09-.291-.13-.444-.105-.403-.191-.829-.258-1.281-.027-.178-.048-.362-.069-.547-.057-.495-.098-1.013-.122-1.556.076-.441.186-.807.318-1.107.199-.031.628-.118 1.133-.334.08.102.215.167.353.158.072-.003 1.024-.054 2.03-.421a.3537.3537 0 0 0 .009.129c.043.168.203.288.389.292.086.003 1.797.022 2.853-1.101.407.908 1.322 2.395 3.187 3.328l.278.357c-.009.087-.02.17-.03.256zm1.083 1.346c-.182.435-.527.699-.774.704.146-.552.25-1.132.324-1.731.072-.033.142-.05.205-.05.035 0 .068.005.098.016.152.055.213.23.236.33.049.214.016.481-.089.732zm-7.015.782v-.843c0-.166.145-.301.323-.301s.323.135.323.301v.775h.497c.178 0 .323.135.323.301s-.145.301-.323.301h-.57c-.316 0-.573-.239-.573-.533zm-1.545-1.933c0 .323-.282.585-.629.585s-.629-.262-.629-.585c0-.323.282-.585.629-.585s.629.262.629.585zm5.814 0c0 .323-.282.585-.629.585s-.629-.262-.629-.585c0-.323.282-.585.629-.585s.629.262.629.585zm-1.954 3.785c0 .485-.817.658-1.582.658s-1.582-.173-1.582-.658c0-.166.145-.301.323-.301.144 0 .266.088.308.209.108.06.448.149.951.149s.843-.089.951-.149c.042-.121.164-.209.308-.209.178 0 .323.135.323.301zm16.212 9.377c-.093-.152-.237-.265-.409-.331.027-.165 0-.339-.095-.496-.093-.152-.237-.265-.409-.33.027-.165 0-.339-.095-.496s-.243-.267-.409-.33c.027-.165.001-.34-.095-.496-.11-.18-.288-.308-.502-.363a.8826.8826 0 0 0-.63.073l-.328.173c-.062-.095-.145-.18-.246-.252v-.329h1.831c.178 0 .323-.135.323-.301s-.145-.301-.323-.301h-1.831v-.301h1.831c.178 0 .323-.135.323-.301s-.145-.301-.323-.301h-1.831v-.301h1.831c.178 0 .323-.135.323-.301s-.145-.301-.323-.301h-1.831v-.301h1.831c.178 0 .323-.135.323-.301s-.145-.301-.323-.301h-1.831l.002-.301h1.829c.178 0 .323-.135.323-.301s-.145-.301-.323-.301h-1.829c-.364 0-.648.308-.648.701v1.448c-.028-.342-.164-.685-.404-.98-.59-.728-1.602-.947-2.253-.489-.34.239-.512.615-.519 1.023-.424-.105-.861-.054-1.2.184-.327.23-.519.603-.526 1.023-.006.389.141.789.415 1.127s.648.579 1.052.68c.135.034.27.05.402.05.295 0 .573-.082.799-.241.021-.015.037-.035.057-.051l1.014 1.131-.366.734a1.437 1.437 0 0 0-.076.139l-2.131 1.125-3.636-5.555c-.089-.136-.198-.253-.314-.36-.192-.231-.47-.396-.793-.449-.314-.097-.648-.128-.98-.076v4.029c.079.023.152.056.216.101.119.083.206.2.242.338l1.59 6.197v-2.518l1.211 1.851c.385.588 1.058.914 1.75.914.343 0 .69-.08 1.008-.249l3.88-2.048c.016-.008.028-.02.044-.029.03.002.061.006.091.006.252 0 .508-.059.743-.183l.729-.385.045.05c.147.164.407.192.591.063l.407-.286c.134-.094.185-.254.148-.409l.317-.168c.193-.102.331-.267.39-.467s.031-.407-.079-.586zm-1.88-1.388.059-.031a.2026.2026 0 0 1 .09-.022c.016 0 .033.002.049.006.048.012.087.041.111.08.05.082.019.187-.069.233l-.846.447c-.043.022-.092.027-.139.016s-.087-.041-.111-.08c-.05-.082-.019-.187.069-.233l.787-.416zm-1.038-.468.008-.016c.006-.012.008-.025.013-.037.006-.014.01-.028.015-.043l.556-.294a.19.19 0 0 1 .09-.022c.016 0 .033.002.049.006.048.012.087.041.111.08.031.051.028.11.002.159-.016.03-.038.057-.071.075l-.846.447c-.035.018-.075.022-.115.018l.187-.373zm-3.7-1.64c-.156.109-.355.082-.46.056-.216-.054-.43-.196-.587-.389s-.244-.423-.241-.632c.002-.101.028-.286.184-.396.078-.055.175-.081.279-.081.253 0 .555.152.767.413.299.369.325.839.058 1.027zm.673-1.541c-.299-.368-.325-.839-.057-1.027.078-.055.174-.081.279-.081.253 0 .555.153.767.414.157.193.245.423.242.631-.002.101-.028.286-.184.396s-.355.082-.459.056c-.216-.054-.43-.196-.587-.389zm.832 2.416c-.147-.182-.109-.44.087-.577s.473-.101.62.081c.052.064.072.137.08.21-.121.073-.223.172-.287.298l-.07.141c-.158.026-.326-.025-.43-.153zm2.541 4.131-.296.156c-.413.219-.942.083-1.177-.301l-.799-1.308c-.114-.187-.143-.403-.082-.61l.004-.007.896-1.795c.023-.045.085-.075.162-.081.057-.005.121.001.187.03s.113.071.145.114c.007.01.016.019.021.029.027.05.034.1.015.138l-.793 1.584c-.013.025-.015.052-.02.078-.023.13.042.263.177.322.044.019.09.028.136.028s.09-.012.132-.029v1.428c0 .166.145.301.323.301s.323-.135.323-.301v-1.043l.979 1.092-.333.176zm.591-1.359c-.043.022-.093.029-.139.016s-.087-.041-.111-.08c-.05-.082-.019-.187.069-.233l.846-.447a.19.19 0 0 1 .09-.022c.016 0 .033.002.049.006.047.012.087.041.111.08.05.082.019.187-.069.233l-.846.447zm1.437.276a.1719.1719 0 0 1-.086.103l-.845.447c-.038.021-.081.024-.122.018-.052-.009-.101-.036-.129-.082-.05-.082-.019-.187.069-.233l.846-.447a.2026.2026 0 0 1 .09-.022c.005 0 .01.002.015.002.011.001.023.002.034.004.048.012.087.041.111.081s.03.085.017.13zm-10.796 8.703-.18-3.894c-.001-.01-.002-.02-.005-.031l-1.761-6.865a.166.166 0 0 0-.038-.07c-.048-.057-.131-.094-.224-.094H9.851c-.093 0-.176.037-.224.094a.166.166 0 0 0-.038.07l-1.546 6.03-.241-.126c-.051-.026-.102-.047-.152-.068l1.52-5.928c.035-.138.123-.255.242-.338a.7297.7297 0 0 1 .215-.1v-4.014c-.754-.227-1.614-.035-2.17.555L.509 23.948c-.385.409-.565.951-.493 1.49s.389 1.025.87 1.333l3.986 2.555c.124.08.256.14.391.191.163.174.357.323.577.437l1.815.941c.004.002.008.002.011.004l-.022.464-.02.431c-.003.059.029.102.056.128.051.05.129.079.211.079h12.414c.083 0 .16-.029.212-.079.027-.026.058-.07.056-.128l-.02-.431zM5.103 24.849l2.477-2.625v4.154a2.2818 2.2818 0 0 0-.244-.076c-.048-.037-.089-.078-.141-.112l-2.091-1.341zm4.85 3.561c-.029.049-.098.067-.15.04l-1.469-.761c-.081-.042-.177-.04-.264-.008-.079.028-.149.08-.191.149s-.053.152-.029.229c.023.077.079.142.154.181l.001.001 1.759.912c.034.018.047.046.052.061s.01.046-.009.078-.049.043-.066.048-.05.009-.084-.009l-1.76-.913a.3062.3062 0 0 0-.114-.03c-.07-.005-.14.015-.203.049l-.018.009c-.048.03-.092.066-.12.112a.284.284 0 0 0-.029.229c.02.066.067.119.126.159.01.007.017.016.028.022l1.469.761c.034.018.047.046.052.062s.01.045-.009.078c-.019.032-.049.044-.066.048s-.049.009-.084-.009l-1.633-.846c-.102-.053-.259-.032-.359.025-.097.056-.155.156-.152.262.002.056.022.108.053.154.028.041.066.077.113.101l1.125.583c.034.018.047.046.052.061s.01.046-.009.078c-.029.049-.098.068-.15.04l-1.815-.941c-.301-.156-.538-.405-.667-.702-.175-.402-.155-.841.053-1.175.253-.406.74-.707 1.282-.707.22 0 .448.051.674.162.006.003.013.005.02.009l2.395 1.256c.034.018.047.047.052.062s.01.046-.009.077zm7.99-1.491c-.009.528-.557.759-.836.351l-.281-.41c-.075.243-.188.471-.336.679.001.032.005.064.005.097 0 1.363-1.073 2.468-2.398 2.468s-2.398-1.105-2.398-2.468c0-.033.003-.064.005-.097a2.4048 2.4048 0 0 1-.336-.679l-.281.41c-.279.408-.827.177-.837-.351-.004-.247-.014-.503-.031-.754-.061-.881 1.229-1.295 1.81-1.436.517-.346 1.251-.501 2.068-.501s1.551.156 2.068.501c.581.141 1.871.555 1.81 1.436-.018.251-.027.507-.032.754zm-4.829 1.83c0-.371.44-.672.983-.672s.983.301.983.672c0 .371-.44.672-.983.672s-.983-.301-.983-.672z"/>
    </symbol>
    <symbol id="icon-nutrition" viewBox="0 0 38 32">
      <path d="M26.898 19.756c-.898-.177-1.786.409-2.162 1.425-.073.197-.122.401-.151.608.927-.554 1.737-1.222 2.436-2.009l-.124-.024zm.833-9.844c1.684-1.344 2.161-4.107 1.065-6.172s-3.349-2.65-5.033-1.306c-1.684 1.344-2.161 4.107-1.065 6.172s3.349 2.65 5.033 1.306zm6.677 1.126c-1.573-2.389-3.71-2.417-4.89-1.442s-1.094 3.449-.108 5.11c.045.092.092.187.139.281.34-1.264.387-2.181.388-2.194.035-1.072.744-1.909 1.615-1.909.02 0 .04 0 .061.001.891.04 1.589.962 1.556 2.055v.003l-.001.018c-.027.612-.197 2.812-1.28 5.427-.099.24-.215.503-.348.781.227.532.445 1.075.644 1.627l-1.379-.272c-.933 1.533-2.36 3.271-4.485 4.634l6.166 6.26c.377.383.834.57 1.288.57.581 0 1.158-.306 1.558-.898.711-1.055.592-2.618-.268-3.49l-1.483-1.506.48.095c.149.029.296.036.44.026.348.02.758-.129 1.262-.344 1.399-.598 2.986-1.653 2.573-4.866-.832-4.317-1.779-6.666-3.926-9.967z"/>
      <path d="M31.598 18.209c1.164-2.81 1.239-5.136 1.246-5.283.026-.876-.531-1.612-1.245-1.644-.713-.033-1.312.649-1.34 1.523-.002.101-.11 2.014-1.055 4.169-.955 2.159-2.671 4.584-6.146 6.003-.678.274-1.047 1.172-.823 2.004.179.667.685 1.09 1.228 1.09.134 0 .271-.026.406-.08 4.249-1.705 6.576-4.976 7.729-7.783zm-17.037 7.546c.588.137 1.296.363 1.483.606.504.652.75 1.998 1.403 2.093.456.066.617.054 1.182-.394.558-.443.028-2.166-.105-2.828-.189-.94.261-1.972.268-2.035.006-.052.394-1.05 1.515-.671.392.133.162-.755-.451-1.198-.729-.527-1.257-.281-1.79.232-1.029-.966-2.642-.778-3.559-.357-.147.732-.203 1.441-.203 2.093 0 .991.129 1.85.257 2.46zm2.614-2.084c.24-.201.567-.125.73.169s.101.695-.138.895c-.24.201-.567.125-.731-.169s-.102-.695.139-.895zm-3.329-2.491c-.239.004-.466-.004-.683-.025-.076-.023-.155-.038-.237-.033-.005 0-.01.002-.015.003-3.298-.46-4.196-3.52-8.05-.344-1.164-.419-2.552-1.321-3.603-3.246-.212-.387-.64-.488-.955-.228-.316.26-.4.784-.186 1.171 1 1.812 2.235 2.873 3.395 3.495-.014.035-.028.076-.042.116-.297.548-.53 1.271-.681 2.234-.021.141-.965 7.527.517 7.527s1.889-5.588 2.717-6.303c.117.013 2.315 2.838 4.193 2.483.44-.084 1.036-.417 1.532-.771l.812 3.989c.091.448.417.751.783.751.04 0 .081-.004.121-.011.412-.076.71-.521.688-1.032l-.211-4.967c-.142-.663-.285-1.6-.286-2.695 0-.658.053-1.373.19-2.115zm7.214 9.755h-.204l-.417-1.583h-4.666l-.417 1.583h-.204c-.164 0-.298.164-.298.366s.134.365.298.365h5.908c.164 0 .298-.164.298-.365s-.134-.366-.298-.366z"/>
    </symbol>
    <symbol id="icon-training" viewBox="0 0 32 32">
      <path d="m6.231 25.595 1.154-3.878-.42-1.144c-.891-.149-1.626-.597-2.098-1.193l-1.573 5.221L.2 29.822c-.42.696-.157 1.591.577 1.989s1.678.149 2.098-.547l3.251-5.37c.052-.099.105-.199.105-.298zM1.09 14.764c.483.253 1.126.051 1.394-.456L4.897 9.65l.429-.304.215-1.266c.107-.658.429-1.266.858-1.772L3.503 8.08c-.161.101-.268.253-.375.405L.607 13.396c-.268.506-.054 1.114.483 1.367zm9.248-9.356c1.631 0 2.954-1.211 2.954-2.704S11.97 0 10.338 0C8.707 0 7.384 1.211 7.384 2.704s1.322 2.704 2.954 2.704zm18.631 20.183s.052.05.052.1c.418-.249.575-.797.575-.797 1.569.448 1.883-.946 1.883-.946.209-.398-.837-.797-.837-.797-.052-.996-1.255-1.295-1.255-1.295-.575-.498-.418 0-.418 0-.575-.05-.942.149-.942.149-.942-.847-1.517.448-1.517.448-.157 0-.262.05-.418.05.942 1.195 1.935 2.241 2.877 3.088zm1.46 3.191c-.272-.252-2.227-1.362-2.227-1.362.435-.202.489-1.059.489-1.362-1.032-.908-2.119-2.068-3.205-3.379-.543.101-4.129 1.513-7.606.05-1.304-.555-2.445.252-2.445.252-.978 1.059-.543 2.774-.543 2.774l1.358-1.362c.706-.504.978-.403 1.141-.151.109.202.054.454-.109.656-1.304 1.261-.869 2.572-.869 2.572l-1.847 1.513c-.706.706.109 1.261.109 1.261.163-.555 1.467-1.412 1.467-1.412-.054.656.272.807.272.807.924-.252.706-1.11.706-1.11 1.467-.05 1.63-.656 1.63-.656 1.467.252 2.173-.656 2.173-.656.38.656 3.694 1.362 3.694 1.362.217.101 1.467 2.421 1.467 2.421.272.05.543.403.543.403.598.353 1.847-.05 1.847-.05-.109-.454-.761-.454-.761-.454-1.467 0-1.25-2.27-1.25-2.27.054-.303 1.195.252 1.195.252l2.499.857c1.25.605 1.793-.101 1.793-.101.38-.555-1.521-.857-1.521-.857zM18.215 11.014c1.241 2.511 3.885 7.484 7.283 11.521.162-.049.378-.049.593-.098-.054-.049-.108-.098-.162-.197-3.399-3.988-6.043-8.961-7.23-11.423-.216.148-.432.197-.486.197z"/>
      <path d="M18.48 10.434c.543-.2.869-.748.652-1.247s-.814-.798-1.357-.599l-2.932.948c-3.421-2.944-3.584-3.443-4.941-3.642-1.738-.249-3.367.898-3.638 2.495l-1.303 8.382c-.271 1.597.977 3.093 2.715 3.343h.163l1.412 3.892-2.878 3.892c-.489.649-.326 1.597.434 2.046.706.449 1.738.299 2.226-.399l3.366-4.49c.271-.399.38-.848.217-1.297l-1.792-4.939c.271-.349.489-.798.543-1.247l1.195-7.434 1.357 1.197c.271.249.706.349 1.086.2l3.475-1.098z"/>
    </symbol>
    <symbol id="icon-arrow-btn" viewBox="0 0 34 32">
      <path d="M13.314 1.858.586 14.586c-.781.781-.781 2.047 0 2.828l12.728 12.728c.781.781 2.047.781 2.828 0s.781-2.047 0-2.828L6.828 18H34v-4H6.828l9.314-9.314c.781-.781.781-2.047 0-2.828s-2.047-.781-2.828 0z"/>
    </symbol>
    <symbol id="icon-bone" viewBox="0 0 73 32">
      <path d="M72.673 13.749c.834-1.892.379-4.677 0-6.753-.295-1.765-1.027-3.222-2.124-4.502S67.831.608 66.302.243c-1.214-.314-3.038-.336-4.247 0s-1.168 1.335-2.124 2.251c-2.383 2.173-5.455 2.326-8.494 2.251H21.706c-3.039.076-6.112-.078-8.494-2.251-.956-.916-.914-1.915-2.124-2.251s-3.034-.314-4.247 0c-1.529.365-3.151.971-4.247 2.251S.766 5.231.47 6.996c-.38 2.076-.834 4.861 0 6.753.302.681 2.124 1.486 2.124 2.251S.773 17.57.47 18.251c-.832 1.892-.378 4.677 0 6.753.296 1.766 1.028 3.22 2.124 4.502s2.718 1.882 4.247 2.251c1.214.314 3.038.336 4.247 0s1.168-1.335 2.124-2.251c2.382-2.176 5.454-2.322 8.494-2.251h29.731c3.04-.071 6.113.075 8.494 2.251.956.916.914 1.915 2.124 2.251s3.034.314 4.247 0c1.529-.369 3.151-.969 4.247-2.251s1.828-2.736 2.124-4.502c.378-2.076.832-4.861 0-6.753-.302-.681-2.124-1.486-2.124-2.251s1.822-1.57 2.124-2.251z"/>
    </symbol>


  </defs>
</svg>
