<svg width="34" height="34" viewBox="0 0 34 34" fill="none" xmlns="http://www.w3.org/2000/svg">
<path fill-rule="evenodd" clip-rule="evenodd" d="M10.3333 3.3125C8.47129 3.3125 6.68552 4.05219 5.36885 5.36885C4.05219 6.68552 3.3125 8.47129 3.3125 10.3333V23.6667C3.3125 25.5287 4.05219 27.3145 5.36885 28.6311C6.68552 29.9478 8.47129 30.6875 10.3333 30.6875H23.6667C25.5287 30.6875 27.3145 29.9478 28.6311 28.6311C29.9478 27.3145 30.6875 25.5287 30.6875 23.6667V10.3333C30.6875 8.47129 29.9478 6.68552 28.6311 5.36885C27.3145 4.05219 25.5287 3.3125 23.6667 3.3125H10.3333ZM3.5127 3.5127C5.32164 1.70375 7.7751 0.6875 10.3333 0.6875H23.6667C26.2249 0.6875 28.6784 1.70375 30.4873 3.5127C32.2962 5.32164 33.3125 7.7751 33.3125 10.3333V23.6667C33.3125 26.2249 32.2962 28.6784 30.4873 30.4873C28.6784 32.2962 26.2249 33.3125 23.6667 33.3125H10.3333C7.7751 33.3125 5.32164 32.2962 3.5127 30.4873C1.70375 28.6784 0.6875 26.2249 0.6875 23.6667V10.3333C0.6875 7.7751 1.70375 5.32164 3.5127 3.5127ZM11.3579 11.3579C12.8543 9.86149 14.8838 9.02083 17 9.02083C19.1162 9.02083 21.1457 9.86149 22.6421 11.3579C24.1385 12.8543 24.9792 14.8838 24.9792 17C24.9792 19.1162 24.1385 21.1457 22.6421 22.6421C21.1457 24.1385 19.1162 24.9792 17 24.9792C14.8838 24.9792 12.8543 24.1385 11.3579 22.6421C9.86149 21.1457 9.02083 19.1162 9.02083 17C9.02083 14.8838 9.86149 12.8543 11.3579 11.3579ZM17 11.6458C15.58 11.6458 14.2181 12.2099 13.214 13.214C12.2099 14.2181 11.6458 15.58 11.6458 17C11.6458 18.42 12.2099 19.7819 13.214 20.786C14.2181 21.7901 15.58 22.3542 17 22.3542C18.42 22.3542 19.7819 21.7901 20.786 20.786C21.7901 19.7819 22.3542 18.42 22.3542 17C22.3542 15.58 21.7901 14.2181 20.786 13.214C19.7819 12.2099 18.42 11.6458 17 11.6458ZM27.1553 8.71455C27.6429 8.17819 27.6034 7.3481 27.0671 6.8605C26.5307 6.37289 25.7006 6.41242 25.213 6.94878L25.1955 6.96803C24.7079 7.50439 24.7474 8.33448 25.2838 8.82208C25.8201 9.30969 26.6502 9.27017 27.1378 8.7338L27.1553 8.71455Z" fill="#FF9F0E"/>
</svg>
