<svg width="96" height="80" viewBox="0 0 96 80" fill="none" xmlns="http://www.w3.org/2000/svg">
<path d="M67.2448 49.3904C64.9996 48.9476 62.7787 50.4128 61.8405 52.9534C61.6586 53.4462 61.5349 53.9569 61.4637 54.4731C63.7808 53.0882 65.8061 51.4188 67.5545 49.4514L67.2448 49.3904Z" fill="#181817"/>
<path d="M69.3279 24.7792C73.5375 21.4196 74.7297 14.5108 71.9909 9.34803C69.252 4.18524 63.6192 2.72348 59.4095 6.08311C55.1999 9.44273 54.0077 16.3515 56.7465 21.5143C59.4854 26.6771 65.1182 28.1389 69.3279 24.7792Z" fill="#181817"/>
<path d="M86.0195 27.595C82.0866 21.6218 76.7449 21.5534 73.7943 23.9899C70.8445 26.4249 71.06 32.6117 73.5235 36.7657C73.6355 36.9948 73.7543 37.2333 73.8707 37.4693C74.7196 34.3099 74.8393 32.0167 74.8405 31.985C74.927 29.3046 76.6996 27.2122 78.8769 27.2122C78.9274 27.2122 78.978 27.2132 79.0285 27.2157C81.2559 27.3159 83.0014 29.6199 82.9193 32.3524V32.3608L82.9169 32.405C82.8506 33.9351 82.4237 39.4353 79.7161 45.9717C79.4695 46.5716 79.1789 47.2291 78.8454 47.9252C79.4129 49.255 79.9587 50.6136 80.4563 51.9935L77.0085 51.3142C74.6764 55.1459 71.1089 59.4928 65.7959 62.8986L81.2102 78.5477C82.1529 79.5052 83.2945 79.9717 84.4296 79.9717C85.8829 79.9717 87.3252 79.2062 88.3249 77.7262C90.1036 75.0889 89.8041 71.1823 87.6543 69.0002L83.9477 65.2354L85.1467 65.4724C85.5182 65.5453 85.8857 65.5631 86.2467 65.5373C87.1174 65.5884 88.1414 65.2151 89.4006 64.6771C92.8989 63.1817 96.865 60.5454 95.8338 52.5116C93.7531 41.7195 91.3867 35.8475 86.0195 27.595Z" fill="#181817"/>
<path d="M78.9959 45.5215C81.9064 38.4957 82.0944 32.6807 82.1118 32.3152C82.1773 30.1257 80.7847 28.2862 78.9995 28.2064C77.2172 28.125 75.7195 29.8292 75.6495 32.0138L75.6491 32.0133C75.6439 32.2657 75.3742 37.0479 73.0122 42.437C70.6252 47.834 66.3337 53.8979 57.6461 57.4456C55.9499 58.1318 55.0282 60.3744 55.5889 62.4553C56.0372 64.1223 57.3017 65.1794 58.6595 65.1794C58.9954 65.1794 59.337 65.1145 59.6734 64.9786C70.2953 60.715 76.1128 52.5374 78.9959 45.5215Z" fill="#181817"/>
<path d="M36.4025 64.3881C37.8723 64.7302 39.6413 65.2954 40.109 65.9028C41.3682 67.5326 41.9835 70.8987 43.6162 71.1347C44.757 71.2993 45.1576 71.2691 46.5709 70.1505C47.9659 69.0438 46.6412 64.7351 46.3081 63.0796C45.8359 60.7304 46.9618 58.1501 46.9791 57.9924C46.9933 57.8615 47.9631 55.3671 50.7665 56.3141C51.7456 56.6473 51.1724 54.4275 49.6391 53.3183C47.8159 52.0014 46.4969 52.6152 45.1641 53.8974C42.5907 51.4818 38.5591 51.9533 36.2671 53.0054C35.9008 54.8365 35.7589 56.6081 35.7589 58.2379C35.7577 60.7155 36.0811 62.8639 36.4025 64.3881ZM42.9367 59.1765C43.5358 58.6752 44.3532 58.8651 44.7623 59.5999C45.1706 60.3352 45.0157 61.3383 44.4166 61.8385C43.8159 62.3398 42.9994 62.1504 42.5903 61.4151C42.1824 60.6803 42.3364 59.6772 42.9367 59.1765Z" fill="#181817"/>
<path d="M34.615 52.9494C34.0183 52.9598 33.4499 52.9385 32.9078 52.8869C32.7178 52.8289 32.5214 52.7927 32.3156 52.8056C32.3031 52.8066 32.2918 52.8116 32.2792 52.8125C24.033 51.6637 21.7883 44.0127 12.1543 51.9528C9.24453 50.9041 5.7753 48.6496 3.1477 43.8386C2.61652 42.8713 1.5473 42.6179 0.761039 43.2694C-0.02926 43.9195 -0.23785 45.2299 0.295349 46.1978C2.7948 50.7276 5.88363 53.3813 8.78207 54.9357C8.74811 55.0229 8.71254 55.1265 8.67697 55.2257C7.93397 56.5967 7.35226 58.4029 6.97388 60.8102C6.92093 61.1617 4.56175 79.6281 8.26706 79.6281C11.9724 79.6281 12.9899 65.6588 15.0588 63.8704C15.3502 63.9021 20.8468 70.9661 25.5417 70.0781C26.6416 69.8689 28.1309 69.0359 29.3719 68.1498L31.4028 78.1218C31.6308 79.2409 32.4462 80 33.3606 80C33.4604 80 33.5619 79.9911 33.6634 79.9722C34.6946 79.7823 35.4372 78.6687 35.3826 77.391L34.8555 64.9746C34.5005 63.318 34.1424 60.9758 34.1408 58.2378C34.1412 56.5922 34.2734 54.8063 34.615 52.9494Z" fill="#181817"/>
<path d="M52.6512 77.3369H52.141L51.0997 73.3793H39.4336L38.3922 77.3369H37.8812C37.4705 77.3369 37.1366 77.746 37.1366 78.2507C37.1366 78.755 37.4705 79.164 37.8812 79.164H52.6512C53.0619 79.164 53.3958 78.755 53.3958 78.2507C53.3958 77.746 53.0615 77.3369 52.6512 77.3369Z" fill="#181817"/>
</svg>
