<svg width="28" height="28" viewBox="0 0 28 28" fill="none" xmlns="http://www.w3.org/2000/svg">
<path d="M25.8334 27.3334C22.3667 27.3334 19.1058 26.6779 16.0507 25.3667C12.9947 24.0556 10.328 22.2614 8.05069 19.9841C5.77247 17.7059 3.97247 15.0392 2.65069 11.9841C1.32802 8.92808 0.666688 5.65564 0.666688 2.16675C0.644465 1.76675 0.777799 1.41653 1.06669 1.11608C1.35558 0.816526 1.71113 0.666748 2.13335 0.666748H7.33335C7.73335 0.666748 8.0778 0.816526 8.36669 1.11608C8.65558 1.41653 8.80002 1.77786 8.80002 2.20008C8.80002 3.17786 8.86669 4.10008 9.00002 4.96675C9.13335 5.83341 9.34447 6.65564 9.63335 7.43341C9.74447 7.67786 9.76669 7.92764 9.70002 8.18275C9.63335 8.43875 9.50002 8.67786 9.30002 8.90008L5.96669 12.2334C6.92224 14.189 8.2778 16.0445 10.0334 17.8001C11.7889 19.5556 13.6778 20.9556 15.7 22.0001L19.0334 18.6667C19.2334 18.4667 19.4667 18.3334 19.7334 18.2667C20 18.2001 20.2667 18.2223 20.5334 18.3334C21.3556 18.6001 22.2054 18.8054 23.0827 18.9494C23.9609 19.0943 24.8667 19.1667 25.8 19.1667C26.2222 19.1667 26.5836 19.3223 26.884 19.6334C27.1836 19.9445 27.3334 20.3223 27.3334 20.7667V25.8667C27.3334 26.2667 27.1889 26.6112 26.9 26.9001C26.6111 27.189 26.2556 27.3334 25.8334 27.3334ZM18.1667 23.3334C19.1667 23.7112 20.2111 24.0112 21.3 24.2334C22.3889 24.4556 23.5111 24.6001 24.6667 24.6667V21.8001C23.9778 21.7556 23.2725 21.6779 22.5507 21.5667C21.828 21.4556 21.1111 21.289 20.4 21.0667L18.1667 23.3334ZM24.6667 14.0001C24.6667 11.0223 23.6334 8.50008 21.5667 6.43341C19.5 4.36675 16.9778 3.33341 14 3.33341V0.666748C15.8445 0.666748 17.5778 1.01653 19.2 1.71608C20.8222 2.41653 22.2334 3.36675 23.4334 4.56675C24.6334 5.76675 25.5831 7.17786 26.2827 8.80008C26.9831 10.4223 27.3334 12.1556 27.3334 14.0001H24.6667ZM19.3334 14.0001C19.3334 12.5334 18.8111 11.2779 17.7667 10.2334C16.7222 9.18897 15.4667 8.66675 14 8.66675V6.00008C16.2222 6.00008 18.1111 6.77786 19.6667 8.33341C21.2222 9.88897 22 11.7779 22 14.0001H19.3334ZM4.66669 9.76675L6.86669 7.53341C6.68891 6.88897 6.53869 6.21119 6.41602 5.50008C6.29424 4.78897 6.21113 4.06675 6.16669 3.33341H3.36669C3.41113 4.40008 3.54447 5.46675 3.76669 6.53341C3.98891 7.60008 4.28891 8.67786 4.66669 9.76675Z" fill="#FF9F0E"/>
</svg>
